name analog
datacolumns 19
datarows 73
range 0.44300000000000006 0.4790000000000001
endheader
time	ground_force_vx	ground_force_vy	ground_force_vz	ground_force_px	ground_force_py	ground_force_pz	l_ground_force_vx	l_ground_force_vy	l_ground_force_vz	l_ground_force_px	l_ground_force_py	l_ground_force_pz	ground_torque_x	ground_torque_y	ground_torque_z	l_ground_torque_x	l_ground_torque_y	l_ground_torque_z
0.44300000000000006	-0.0	-0.0	-0.0	-0.0	-0.0	-0.0	-0.0	-0.0	-0.0	-0.0	-0.0	-0.0	-0.0	-0.0	-0.0	-0.0	-0.0	-0.0
0.44350000000000006	-0.0	-0.0	-0.0	-0.0	-0.0	-0.0	-0.0	-0.0	-0.0	-0.0	-0.0	-0.0	-0.0	-0.0	-0.0	-0.0	-0.0	-0.0
0.44400000000000006	-0.0	-0.0	-0.0	-0.0	-0.0	-0.0	-0.0	-0.0	-0.0	-0.0	-0.0	-0.0	-0.0	-0.0	-0.0	-0.0	-0.0	-0.0
0.44450000000000006	-0.0	-0.0	-0.0	-0.0	-0.0	-0.0	-0.0	-0.0	-0.0	-0.0	-0.0	-0.0	-0.0	-0.0	-0.0	-0.0	-0.0	-0.0
0.44500000000000006	-0.0	-0.0	-0.0	-0.0	-0.0	-0.0	-0.0	-0.0	-0.0	-0.0	-0.0	-0.0	-0.0	-0.0	-0.0	-0.0	-0.0	-0.0
0.4455000000000001	-0.0	-0.0	-0.0	-0.0	-0.0	-0.0	-0.0	-0.0	-0.0	-0.0	-0.0	-0.0	-0.0	-0.0	-0.0	-0.0	-0.0	-0.0
0.44600000000000006	-0.0	-0.0	-0.0	-0.0	-0.0	-0.0	-0.0	-0.0	-0.0	-0.0	-0.0	-0.0	-0.0	-0.0	-0.0	-0.0	-0.0	-0.0
0.4465000000000001	-0.0	-0.0	-0.0	-0.0	-0.0	-0.0	-0.0	-0.0	-0.0	-0.0	-0.0	-0.0	-0.0	-0.0	-0.0	-0.0	-0.0	-0.0
0.44700000000000006	-0.0	-0.0	-0.0	-0.0	-0.0	-0.0	-0.0	-0.0	-0.0	-0.0	-0.0	-0.0	-0.0	-0.0	-0.0	-0.0	-0.0	-0.0
0.4475000000000001	-0.0	-0.0	-0.0	-0.0	-0.0	-0.0	-0.0	-0.0	-0.0	-0.0	-0.0	-0.0	-0.0	-0.0	-0.0	-0.0	-0.0	-0.0
0.44800000000000006	-0.0	-0.0	-0.0	-0.0	-0.0	-0.0	-0.0	-0.0	-0.0	-0.0	-0.0	-0.0	-0.0	-0.0	-0.0	-0.0	-0.0	-0.0
0.4485000000000001	-0.0	-0.0	-0.0	-0.0	-0.0	-0.0	-0.0	-0.0	-0.0	-0.0	-0.0	-0.0	-0.0	-0.0	-0.0	-0.0	-0.0	-0.0
0.44900000000000007	-0.0	-0.0	-0.0	-0.0	-0.0	-0.0	-0.0	-0.0	-0.0	-0.0	-0.0	-0.0	-0.0	-0.0	-0.0	-0.0	-0.0	-0.0
0.4495000000000001	-0.0	-0.0	-0.0	-0.0	-0.0	-0.0	-0.0	-0.0	-0.0	-0.0	-0.0	-0.0	-0.0	-0.0	-0.0	-0.0	-0.0	-0.0
0.45000000000000007	-0.0	-0.0	-0.0	-0.0	-0.0	-0.0	-0.0	-0.0	-0.0	-0.0	-0.0	-0.0	-0.0	-0.0	-0.0	-0.0	-0.0	-0.0
0.4505000000000001	-0.0	-0.0	-0.0	-0.0	-0.0	-0.0	-0.0	-0.0	-0.0	-0.0	-0.0	-0.0	-0.0	-0.0	-0.0	-0.0	-0.0	-0.0
0.45100000000000007	-0.0	-0.0	-0.0	-0.0	-0.0	-0.0	-0.0	-0.0	-0.0	-0.0	-0.0	-0.0	-0.0	-0.0	-0.0	-0.0	-0.0	-0.0
0.4515000000000001	-0.0	-0.0	-0.0	-0.0	-0.0	-0.0	-0.0	-0.0	-0.0	-0.0	-0.0	-0.0	-0.0	-0.0	-0.0	-0.0	-0.0	-0.0
0.45200000000000007	-0.0	-0.0	-0.0	-0.0	-0.0	-0.0	-0.0	-0.0	-0.0	-0.0	-0.0	-0.0	-0.0	-0.0	-0.0	-0.0	-0.0	-0.0
0.4525000000000001	-0.0	-0.0	-0.0	-0.0	-0.0	-0.0	-0.0	-0.0	-0.0	-0.0	-0.0	-0.0	-0.0	-0.0	-0.0	-0.0	-0.0	-0.0
0.45300000000000007	-0.0	-0.0	-0.0	-0.0	-0.0	-0.0	-0.0	-0.0	-0.0	-0.0	-0.0	-0.0	-0.0	-0.0	-0.0	-0.0	-0.0	-0.0
0.4535000000000001	-0.0	-0.0	-0.0	-0.0	-0.0	-0.0	-0.0	-0.0	-0.0	-0.0	-0.0	-0.0	-0.0	-0.0	-0.0	-0.0	-0.0	-0.0
0.45400000000000007	-0.0	-0.0	-0.0	-0.0	-0.0	-0.0	-0.0	-0.0	-0.0	-0.0	-0.0	-0.0	-0.0	-0.0	-0.0	-0.0	-0.0	-0.0
0.4545000000000001	-0.0	-0.0	-0.0	-0.0	-0.0	-0.0	-0.0	-0.0	-0.0	-0.0	-0.0	-0.0	-0.0	-0.0	-0.0	-0.0	-0.0	-0.0
0.45500000000000007	-0.0	-0.0	-0.0	-0.0	-0.0	-0.0	-0.0	-0.0	-0.0	-0.0	-0.0	-0.0	-0.0	-0.0	-0.0	-0.0	-0.0	-0.0
0.4555000000000001	-0.0	-0.0	-0.0	-0.0	-0.0	-0.0	-0.0	-0.0	-0.0	-0.0	-0.0	-0.0	-0.0	-0.0	-0.0	-0.0	-0.0	-0.0
0.45600000000000007	-0.0	-0.0	-0.0	-0.0	-0.0	-0.0	-0.0	-0.0	-0.0	-0.0	-0.0	-0.0	-0.0	-0.0	-0.0	-0.0	-0.0	-0.0
0.45650000000000013	-0.0	-0.0	-0.0	-0.0	-0.0	-0.0	-0.0	-0.0	-0.0	-0.0	-0.0	-0.0	-0.0	-0.0	-0.0	-0.0	-0.0	-0.0
0.4570000000000001	-0.0	-0.0	-0.0	-0.0	-0.0	-0.0	-0.0	-0.0	-0.0	-0.0	-0.0	-0.0	-0.0	-0.0	-0.0	-0.0	-0.0	-0.0
0.45750000000000013	-0.0	-0.0	-0.0	-0.0	-0.0	-0.0	-0.0	-0.0	-0.0	-0.0	-0.0	-0.0	-0.0	-0.0	-0.0	-0.0	-0.0	-0.0
0.4580000000000001	-0.0	-0.0	-0.0	-0.0	-0.0	-0.0	-0.0	-0.0	-0.0	-0.0	-0.0	-0.0	-0.0	-0.0	-0.0	-0.0	-0.0	-0.0
0.45850000000000013	-0.0	-0.0	-0.0	-0.0	-0.0	-0.0	-0.0	-0.0	-0.0	-0.0	-0.0	-0.0	-0.0	-0.0	-0.0	-0.0	-0.0	-0.0
0.4590000000000001	-0.0	-0.0	-0.0	-0.0	-0.0	-0.0	-0.0	-0.0	-0.0	-0.0	-0.0	-0.0	-0.0	-0.0	-0.0	-0.0	-0.0	-0.0
0.45950000000000013	-0.0	-0.0	-0.0	-0.0	-0.0	-0.0	-0.0	-0.0	-0.0	-0.0	-0.0	-0.0	-0.0	-0.0	-0.0	-0.0	-0.0	-0.0
0.4600000000000001	-0.0	-0.0	-0.0	-0.0	-0.0	-0.0	-0.0	-0.0	-0.0	-0.0	-0.0	-0.0	-0.0	-0.0	-0.0	-0.0	-0.0	-0.0
0.46050000000000013	-0.0	-0.0	-0.0	-0.0	-0.0	-0.0	-0.0	-0.0	-0.0	-0.0	-0.0	-0.0	-0.0	-0.0	-0.0	-0.0	-0.0	-0.0
0.4610000000000001	-0.0	-0.0	-0.0	-0.0	-0.0	-0.0	1.8163577318191528	0.1532988548278808	-60.98665237426758	-0.0	-0.0	-0.0	-0.0	-0.0	-0.0	12003.8916015625	13999.9482421875	650.4306640625
0.46150000000000013	-0.0	-0.0	-0.0	3.075406551361084	-5.8218536376953125	-39.73018646240234	-29.61745834350586	-9.206243515014648	-77.90210723876953	-0.0	-0.0	-0.0	-0.0	-0.0	-0.0	21089.3125	17071.291015625	-9788.0458984375
0.4620000000000001	-0.0	-0.0	-0.0	-33.30919647216797	1.455099105834961	-108.33869934082033	-63.69806671142578	-12.983287811279297	-184.85760498046875	-0.0	-0.0	-0.0	-0.0	-0.0	-0.0	43008.37890625	36850.28515625	-18167.888671875
0.46250000000000013	-0.0	-0.0	-0.0	-73.34721374511719	2.6002111434936523	-142.5901336669922	-196.6133728027344	-59.91267013549805	-836.9644775390625	-0.0	-0.0	-0.0	-0.0	-0.0	-0.0	212297.1875	140714.984375	-61016.58984375
0.4630000000000001	-0.0	-0.0	-0.0	-128.0096435546875	-6.848267555236816	-562.4645385742188	-227.85305786132807	-62.29554748535156	-565.3995971679688	-0.0	-0.0	-0.0	-0.0	-0.0	-0.0	139808.34375	97909.703125	-67806.359375
0.46350000000000013	-0.0	-0.0	-0.0	-304.4285888671875	-15.15219020843506	-625.8480224609375	0.1530609130859375	-17.921985626220703	-406.7558288574219	-0.0	-0.0	-0.0	-0.0	-0.0	-0.0	98243.265625	68083.609375	-3679.835693359375
0.4640000000000001	-0.0	-0.0	-0.0	-59.0994873046875	25.89485740661621	-349.60888671875	110.32675170898438	-10.87088680267334	-460.5077819824219	-0.0	-0.0	-0.0	-0.0	-0.0	-0.0	113054.5546875	72854.015625	24622.9375
0.46450000000000014	-0.0	-0.0	-0.0	67.26774597167969	38.64229965209961	-335.4237976074219	97.49359130859376	-24.058765411376957	-539.8727416992188	-0.0	-0.0	-0.0	-0.0	-0.0	-0.0	130711.8359375	84748.3828125	20636.31640625
0.4650000000000001	-0.0	-0.0	-0.0	145.85626220703125	39.484771728515625	-389.8796081542969	37.73698043823242	-64.10269927978516	-630.5870361328125	-0.0	-0.0	-0.0	-0.0	-0.0	-0.0	149241.0	97976.9609375	1793.78173828125
0.46550000000000014	-0.0	-0.0	-0.0	96.18440246582033	34.50235748291016	-441.1940612792969	29.44540023803711	-88.9183120727539	-693.615234375	-0.0	-0.0	-0.0	-0.0	-0.0	-0.0	163889.078125	106363.2734375	-2615.345703125
0.4660000000000001	-0.0	-0.0	-0.0	54.769493103027344	46.64999771118164	-520.5119018554688	18.895397186279297	-108.1269302368164	-720.55859375	-0.0	-0.0	-0.0	-0.0	-0.0	-0.0	169961.28125	108588.703125	-6230.68115234375
0.46650000000000014	-0.0	-0.0	-0.0	47.69685745239258	50.74371337890625	-569.42822265625	-17.8031005859375	-138.81765747070312	-770.348388671875	-0.0	-0.0	-0.0	-0.0	-0.0	-0.0	181530.109375	114083.4765625	-17951.7578125
0.4670000000000001	-0.0	-0.0	-0.0	36.115478515625	60.56095886230469	-623.7352294921875	-63.29050827026367	-180.4524688720703	-879.8955078125	-0.0	-0.0	-0.0	-0.0	-0.0	-0.0	207019.296875	127192.453125	-33830.48046875
0.46750000000000014	-0.0	-0.0	-0.0	-0.8443875312805176	89.18620300292969	-700.8207397460938	-75.3548812866211	-210.1526641845703	-1015.1702270507812	-0.0	-0.0	-0.0	-0.0	-0.0	-0.0	238583.390625	140661.96875	-40879.875
0.4680000000000001	-0.0	-0.0	-0.0	-37.22553253173828	108.21925354003906	-801.528564453125	-44.46367263793945	-230.68038940429688	-1296.8714599609375	-0.0	-0.0	-0.0	-0.0	-0.0	-0.0	312097.59375	151497.671875	-36845.90625
0.46850000000000014	-0.0	-0.0	-0.0	-48.96781539916992	118.43062591552734	-904.1998291015624	163.6545867919922	-199.6531219482422	-1660.7012939453125	-0.0	-0.0	-0.0	-0.0	-0.0	-0.0	416242.75	152643.15625	19966.98828125
0.4690000000000001	-0.0	-0.0	-0.0	-35.443931579589844	98.95650482177734	-1055.518310546875	430.3074340820313	-154.23309326171875	-1974.6715087890625	-0.0	-0.0	-0.0	-0.0	-0.0	-0.0	502047.59375	141382.328125	94843.1875
0.46950000000000014	-0.0	-0.0	-0.0	56.5613899230957	92.24202728271484	-1200.942626953125	435.8653869628906	-107.62623596191406	-1833.591064453125	-0.0	-0.0	-0.0	-0.0	-0.0	-0.0	473623.15625	137234.1875	100723.3359375
0.4700000000000001	-0.0	-0.0	-0.0	149.29600524902344	98.5394287109375	-1273.919921875	190.3160400390625	-144.1999969482422	-1608.302734375	-0.0	-0.0	-0.0	-0.0	-0.0	-0.0	407093.90625	148979.703125	30067.8828125
0.47050000000000014	-0.0	-0.0	-0.0	164.12351989746094	115.4889678955078	-1232.5408935546875	-8.77301025390625	-176.8114776611328	-1438.9964599609375	-0.0	-0.0	-0.0	-0.0	-0.0	-0.0	362224.21875	158775.953125	-26358.357421875
0.4710000000000001	-0.0	-0.0	-0.0	75.3828125	137.455078125	-1147.261962890625	-129.77511596679688	-186.21307373046875	-1316.7783203125	-0.0	-0.0	-0.0	-0.0	-0.0	-0.0	329188.9375	164556.609375	-59306.47265625
0.47150000000000014	-0.0	-0.0	-0.0	-22.010202407836918	147.45880126953125	-1070.480224609375	-167.2394256591797	-183.4312744140625	-1215.0003662109375	-0.0	-0.0	-0.0	-0.0	-0.0	-0.0	302228.3125	164151.125	-70139.8671875
0.4720000000000001	-0.0	-0.0	-0.0	-97.08445739746094	149.74856567382812	-1015.0361938476562	-172.8848114013672	-182.42481994628903	-1147.7493896484375	-0.0	-0.0	-0.0	-0.0	-0.0	-0.0	284678.25	162187.703125	-72239.0546875
0.47250000000000014	-0.0	-0.0	-0.0	-129.82984924316406	146.27293395996094	-971.1685791015624	-160.3140411376953	-179.40101623535156	-1102.533203125	-0.0	-0.0	-0.0	-0.0	-0.0	-0.0	273555.1875	159503.1875	-69434.6015625
0.4730000000000001	-0.0	-0.0	-0.0	-132.6048126220703	143.84536743164062	-938.6373291015624	-136.09974670410156	-173.0585174560547	-1079.7823486328125	-0.0	-0.0	-0.0	-0.0	-0.0	-0.0	268213.28125	157805.953125	-62950.6015625
0.47350000000000014	-0.0	-0.0	-0.0	-123.10040283203124	139.5260009765625	-918.0678100585938	-115.86602020263672	-167.56370544433594	-1080.8697509765625	-0.0	-0.0	-0.0	-0.0	-0.0	-0.0	268933.9375	157011.34375	-57741.01171875
0.4740000000000001	-0.0	-0.0	-0.0	-114.10800170898438	133.67283630371094	-907.7933959960938	-105.20233154296876	-157.90115356445312	-1088.864501953125	-0.0	-0.0	-0.0	-0.0	-0.0	-0.0	272491.65625	157062.296875	-54782.66015625
0.47450000000000014	-0.0	-0.0	-0.0	-105.70735931396484	129.4071044921875	-906.3816528320312	-96.86324310302734	-149.35321044921875	-1089.25	-0.0	-0.0	-0.0	-0.0	-0.0	-0.0	274006.1875	156319.578125	-52363.5390625
0.4750000000000001	-0.0	-0.0	-0.0	-99.43871307373048	126.70594024658205	-907.9437866210938	-83.78801727294922	-146.3607177734375	-1080.978759765625	-0.0	-0.0	-0.0	-0.0	-0.0	-0.0	272192.0	154678.40625	-49028.734375
0.47550000000000014	-0.0	-0.0	-0.0	-95.53404998779295	125.91455841064452	-909.2501220703124	-69.94951629638672	-146.28091430664062	-1065.682373046875	-0.0	-0.0	-0.0	-0.0	-0.0	-0.0	268446.375	151822.484375	-45320.6171875
0.4760000000000001	-0.0	-0.0	-0.0	-86.79659271240234	124.9555892944336	-911.349609375	-57.56707763671875	-143.56216430664062	-1047.7073974609375	-0.0	-0.0	-0.0	-0.0	-0.0	-0.0	264941.625	148826.125	-41824.890625
0.47650000000000015	-0.0	-0.0	-0.0	-75.00623321533203	124.34286499023438	-915.9813842773438	-46.29225540161133	-139.20787048339844	-1034.958251953125	-0.0	-0.0	-0.0	-0.0	-0.0	-0.0	261432.03125	146042.28125	-38484.453125
0.4770000000000001	-0.0	-0.0	-0.0	-60.62314224243164	122.4717788696289	-919.6964721679688	-32.295166015625	-133.03543090820312	-1018.4193725585938	-0.0	-0.0	-0.0	-0.0	-0.0	-0.0	257802.703125	142531.75	-33784.625
0.47750000000000015	-0.0	-0.0	-0.0	-45.32277297973633	120.49359130859376	-919.9912719726562	-17.528133392333984	-127.16033935546876	-997.7847900390624	-0.0	-0.0	-0.0	-0.0	-0.0	-0.0	252793.59375	138493.75	-29123.53125
0.4780000000000001	-0.0	-0.0	-0.0	-32.802215576171875	118.73248291015624	-916.0205688476562	-4.628357410430908	-123.01325988769533	-973.1973266601562	-0.0	-0.0	-0.0	-0.0	-0.0	-0.0	246553.8125	134587.078125	-24862.15625
0.47850000000000015	-0.0	-0.0	-0.0	-24.295730590820312	117.35212707519533	-905.99267578125	3.452967882156372	-120.26563262939452	-940.6785888671876	-0.0	-0.0	-0.0	-0.0	-0.0	-0.0	238450.265625	130093.9296875	-21948.884765625
0.4790000000000001	-0.0	-0.0	-0.0	-19.770294189453125	116.21510314941406	-888.7308349609375	6.319838047027588	-118.82139587402344	-906.1157836914062	-0.0	-0.0	-0.0	-0.0	-0.0	-0.0	229066.609375	125862.2578125	-20361.63671875
